<!-- FLOW-PRODUCED: generated by lean-adversarial-dev dispatch. Do not hand-edit without checking the plan at /agent/projects/taskr/Frontend/.hermes/plans/2026-06-30_taskr-frontend-integration.md. -->
<svg xmlns="http://www.w3.org/2000/svg">
  <symbol id="icon-taskr" viewBox="0 0 64 64" fill="none">
    <g stroke="currentColor" stroke-width="4" stroke-linecap="round" stroke-linejoin="round">
      <path d="M32 8 56 32 32 56 8 32 32 8Z"/>
      <path d="M32 8v10M56 32H46M32 56V46M8 32h10"/>
    </g>
    <path d="M32 21 43 32 32 43 21 32 32 21Z" fill="currentColor"/>
    <circle cx="32" cy="8" r="4" fill="currentColor"/>
    <circle cx="56" cy="32" r="4" fill="currentColor"/>
    <circle cx="32" cy="56" r="4" fill="currentColor"/>
    <circle cx="8" cy="32" r="4" fill="currentColor"/>
  </symbol>
  <symbol id="icon-hermes" viewBox="0 0 64 64" fill="none">
    <path d="M36 6 16 36h14l-4 22 22-34H32l4-18Z" stroke="currentColor" stroke-width="2" stroke-linecap="round" stroke-linejoin="round"/>
  </symbol>
  <symbol id="icon-api" viewBox="0 0 64 64" fill="none">
    <g stroke="currentColor" stroke-width="2" stroke-linecap="round" stroke-linejoin="round">
      <line x1="8" y1="22" x2="28" y2="22"/>
      <line x1="36" y1="22" x2="56" y2="22"/>
      <line x1="8" y1="42" x2="28" y2="42"/>
      <line x1="36" y1="42" x2="56" y2="42"/>
      <rect x="28" y="14" width="8" height="16" rx="2"/>
      <rect x="28" y="34" width="8" height="16" rx="2"/>
    </g>
  </symbol>
  <symbol id="icon-foreach" viewBox="0 0 64 64" fill="none">
    <g stroke="currentColor" stroke-width="2" stroke-linecap="round" stroke-linejoin="round">
      <path d="M52 32a20 20 0 1 1-5.86-14.14"/>
      <polyline points="52 6 52 18 40 18"/>
    </g>
  </symbol>
  <symbol id="icon-question" viewBox="0 0 64 64" fill="none">
    <g stroke="currentColor" stroke-width="2" stroke-linecap="round" stroke-linejoin="round">
      <path d="M24 24a8 8 0 1 1 12 6.9c-2.4 1.4-4 3.6-4 6.6v2"/>
      <circle cx="32" cy="48" r="2" fill="currentColor" stroke="none"/>
    </g>
  </symbol>
  <symbol id="icon-budget" viewBox="0 0 64 64" fill="none">
    <g stroke="currentColor" stroke-width="2" stroke-linecap="round" stroke-linejoin="round">
      <circle cx="32" cy="32" r="22"/>
      <path d="M32 18v28"/>
      <path d="M38 24a8 8 0 0 0-6-2c-4 0-7 2-7 5s3 4 7 5 7 2 7 5-3 5-7 5a8 8 0 0 1-6-2"/>
    </g>
  </symbol>
  <symbol id="icon-result" viewBox="0 0 64 64" fill="none">
    <path d="M14 32 26 44 50 20" stroke="currentColor" stroke-width="2" stroke-linecap="round" stroke-linejoin="round"/>
  </symbol>
  <symbol id="icon-run" viewBox="0 0 64 64" fill="none">
    <polygon points="20 14 50 32 20 50 20 14" stroke="currentColor" stroke-width="2" stroke-linecap="round" stroke-linejoin="round"/>
  </symbol>
</svg>
